<svg id="Layer_1" data-name="Layer 1" xmlns="http://www.w3.org/2000/svg" viewBox="0 0 921.77 278.2"><defs><style>.cls-1{fill:#16d671;}.cls-2{fill:#20293a;}</style></defs><path class="cls-1" d="M3.21,196.35c4.39,2.06,9.05,3.87,13.67,5.56s9.35,3.21,14.08,4.64c9.46,2.86,19.07,5.22,28.73,7.24a403.78,403.78,0,0,0,58.62,7.72,462.57,462.57,0,0,0,59-.3,513.48,513.48,0,0,0,58.41-7.58,545.81,545.81,0,0,0,57.14-14c9.39-2.85,18.71-5.88,27.94-9.21s18.4-6.77,27.49-10.43q27.23-11.12,53.45-24.51l13.08-6.84c4.47-2.31,8.9-4.7,13.4-6.95s9-4.59,13.49-6.8l6.78-3.34,6.82-3.27q27.26-13.13,55.39-24.59c18.76-7.61,37.83-14.6,57.29-20.55,38.86-12,79.31-19.84,120.27-22s82.36,1,122,11.23S887.53,99.66,920,123.31a1.57,1.57,0,0,1,.51,2,1.48,1.48,0,0,1-1.89.6,450.76,450.76,0,0,0-55.36-21,406.22,406.22,0,0,0-57-12.88c-38.4-5.86-77.3-6.21-115.77-2.27S613.9,101.59,576.3,111.81c-2.36.61-4.71,1.27-7,2s-4.69,1.31-7,2c-4.67,1.41-9.36,2.78-14,4.23-9.34,2.86-18.63,6-27.88,9.18q-27.72,9.73-54.85,21.43l-6.76,2.95-6.73,3c-4.49,2-9,4.09-13.41,6.18l-27,12.92q-27.5,12.81-56,23.31a595.87,595.87,0,0,1-57.94,17.94,563.09,563.09,0,0,1-59.45,11.85,482.22,482.22,0,0,1-120.73,2.3,411.52,411.52,0,0,1-59.28-11c-9.7-2.6-19.3-5.59-28.72-9.05-4.72-1.73-9.39-3.56-14-5.55s-9.09-4-13.56-6.46a1.54,1.54,0,0,1-.77-1.81,1.47,1.47,0,0,1,2-.86Z"/><path class="cls-2" d="M224,23.59h37.25v102L297.76,75h43.95L297,137.29l49.41,66.79H301.73l-40.47-55.37v55.37H224Z"/><path class="cls-2" d="M29.33,254.35V78h35.5v8.28A53.6,53.6,0,0,1,98.67,75c16.57,0,30.53,6.16,41.65,18.46s16.81,27.69,16.81,46.15c0,18.23-5.68,33.61-16.81,46.15C129.2,198,115.24,204.18,98.67,204.18a55.06,55.06,0,0,1-33.84-11.36v61.53Zm36-114.54c0,16.33,12.07,29.35,27.46,29.35a25,25,0,0,0,19.17-8.52c5.44-5.68,8-12.55,8-20.83,0-17-12.07-29.82-27.21-29.82C77.37,110,65.3,122.77,65.3,139.81Z"/><path class="cls-1" d="M169.41,44.69a20.58,20.58,0,0,1,6-15.14,21.47,21.47,0,0,1,15.37-6,20.57,20.57,0,0,1,15.14,6q6.18,5.85,6.19,15.14t-6.19,15.14a20.57,20.57,0,0,1-15.14,6,21.47,21.47,0,0,1-15.37-6A20.58,20.58,0,0,1,169.41,44.69Z"/><rect class="cls-2" x="172.48" y="74.96" width="36.54" height="129.11"/><path class="cls-2" d="M413.08,113.75c-2.13-6.86-8.28-10.41-18.45-10.41-9.22,0-13.95,2.6-13.95,8,0,3.08,3.31,5.91,9.7,8.28l22,7.09c24.83,7.81,35,19.16,35,37.84,0,25.77-20.1,39.49-50.61,39.49-31,0-49.42-13.48-53-36.89l32.64-4.49c2.36,8.27,9.46,12.29,21,12.29,9.46,0,16.08-3.31,16.08-9,0-4-4-7.1-12.29-9.46l-22.47-6.62c-22.94-6.39-32.4-17.27-32.4-35.47,0-27.2,19.87-39.5,49.9-39.5,28.61,0,46.11,12.54,49.19,33.58Z"/><path class="cls-2" d="M459.88,204.08V23.59h37.25V204.08Z"/><path class="cls-2" d="M509.06,44.69a20.58,20.58,0,0,1,6-15.14,21.47,21.47,0,0,1,15.37-6,20.57,20.57,0,0,1,15.14,6q6.19,5.85,6.19,15.14t-6.19,15.14a20.57,20.57,0,0,1-15.14,6,21.47,21.47,0,0,1-15.37-6A20.58,20.58,0,0,1,509.06,44.69Z"/><rect class="cls-2" x="512.13" y="74.96" width="36.54" height="129.11"/><path class="cls-2" d="M578.53,93.37c11.12-12.3,25.08-18.45,41.64-18.45a55.68,55.68,0,0,1,34.06,11.35V23.59h35.25V201H654.23v-8.51a53.57,53.57,0,0,1-34.06,11.59c-16.56,0-30.52-6.15-41.64-18.45C567.41,173.09,562,157.71,562,139.5,562,121.05,567.41,105.67,578.53,93.37Zm20.35,45.89c0,17,12.06,29.81,27.44,29.81,15.14,0,27.44-12.78,27.44-29.81,0-8.28-2.61-15.14-8-20.81s-11.82-8.52-19.39-8.52C610.94,109.93,598.88,122.94,598.88,139.26Z"/><path class="cls-2" d="M740.37,152.29c4,13,15.61,21.52,30,21.52,10.17,0,18.21-3.55,24.36-10.88l34.29,7.81c-11.12,20.57-32.64,33.34-58.88,33.34-19.16,0-35.24-6.15-48-18.45S703,158,703,139.52c0-18.21,6.15-33.58,18.68-45.87C734.22,81.11,749.59,75,768.27,75c18.45,0,33.82,6.15,46.35,18.69,12.54,12.29,18.68,27.66,18.68,45.87a55.34,55.34,0,0,1-1.42,12.77ZM797.12,126c-4.49-12.53-15.6-20.81-28.85-20.81-12.53,0-23.64,8.28-27.66,20.81Z"/></svg>